Coordinates
version=1
nRows=10
nColumns=28
inDegrees=yes

Units are S.I. units (second, meters, Newtons, ...)
Angles are in degrees.

endheader
time	pelvis_tilt	pelvis_list	pelvis_rotation	pelvis_tx	pelvis_ty	pelvis_tz	hip_flexion_r	hip_adduction_r	hip_rotation_r	knee_angle_r	ankle_angle_r	subtalar_angle_r	mtp_angle_r	hip_flexion_l	hip_adduction_l	hip_rotation_l	knee_angle_l	socket_flexion	socket_adduction	socket_rotation	socket_tx	socket_ty	socket_tz	foot_flex	lumbar_extension	lumbar_bending	lumbar_rotation
      0.63333333	     -2.57013195	      0.26661232	     10.13196310	     -0.01180558	      0.98822914	      0.26152862	     27.66882606	     -2.17138071	    -10.14635186	     -7.52993301	     10.86250210	    -20.16580293	     -8.85814604	    -17.66666137	     -1.82392538	     18.11499908	     -8.78260647	      0.00000000	      0.00000000	      0.00000000	      0.00000000	      0.00000000	      0.00000000	      7.65065521	     -8.99787865	     -0.40138394	     -6.90333002
      0.63750000	     -2.61215012	      0.42499596	     10.00689048	     -0.01196047	      0.98803677	      0.26176357	     27.95283294	     -2.33916803	    -10.30532792	     -7.99774755	     10.95183117	    -19.93553785	     -8.71756823	    -17.64550832	     -1.61355706	     18.00904541	     -8.81021670	      0.00000000	      0.00000000	      0.00000000	      0.00000000	      0.00000000	      0.00000000	      7.78253505	     -9.00444613	     -0.62907635	     -6.84336427
      0.64166667	     -2.57516681	      0.14483588	     10.11776038	     -0.00532258	      0.98722339	      0.26179858	     28.00853246	     -2.03367711	    -10.04324199	     -8.59493132	     10.55905398	    -20.03768922	     -8.59657278	    -17.82539081	     -1.95235935	     17.98526205	     -9.16262162	      0.00000000	      0.00000000	      0.00000000	      0.00000000	      0.00000000	      0.00000000	      7.60299523	     -8.89654452	     -0.18224059	     -6.85991723
      0.64583333	     -2.51234698	     -0.00196737	     10.24899139	      0.00104011	      0.98646290	      0.26189103	     28.10583851	     -1.88020823	     -9.79176284	     -9.34454698	     10.28786427	    -20.03408053	     -8.59260078	    -17.98683573	     -2.15043426	     18.05222368	     -9.61790402	      0.00000000	      0.00000000	      0.00000000	      0.00000000	      0.00000000	      0.00000000	      7.47316030	     -8.89390098	      0.08660553	     -6.85623668
      0.65000000	     -2.53790661	     -0.11262515	     10.05966209	      0.00776126	      0.98533806	      0.26243936	     28.56639626	     -1.70911988	     -9.77831263	    -10.53747542	      8.65748677	    -20.82214726	     -4.67403355	    -18.15505086	     -2.21213070	     17.69751905	    -10.00621762	      0.00000000	      0.00000000	      0.00000000	      0.00000000	      0.00000000	      0.00000000	      7.42394062	     -8.72986623	      0.25266313	     -6.72725919
      0.65416667	     -2.42434446	     -0.27484973	     10.04802187	      0.01427299	      0.98461544	      0.26273864	     28.74638652	     -1.51075037	     -9.71351812	    -11.55665553	      8.23647264	    -20.81570152	     -4.65489989	    -18.38109553	     -2.38994964	     17.55222420	    -10.47499002	      0.00000000	      0.00000000	      0.00000000	      0.00000000	      0.00000000	      0.00000000	      7.28228703	     -8.75096436	      0.54424726	     -6.75498091
      0.65833333	     -2.34406483	     -0.44472900	     10.13609035	      0.02071104	      0.98399840	      0.26290680	     28.84078982	     -1.31996492	     -9.48846408	    -12.36689363	      7.95794630	    -20.77484455	     -4.63704417	    -18.49944597	     -2.58697221	     17.56793533	    -11.04112920	      0.00000000	      0.00000000	      0.00000000	      0.00000000	      0.00000000	      0.00000000	      7.08045835	     -8.75796610	      0.84148190	     -6.73855929
      0.66250000	     -2.22430982	     -0.62843313	      9.93795680	      0.02741522	      0.98321999	      0.26345627	     29.15907323	     -1.06279151	     -9.56650271	    -13.65796847	      7.38220069	    -20.79004417	     -4.50178743	    -18.75582452	     -2.72634587	     17.15123057	    -11.52087914	      0.00000000	      0.00000000	      0.00000000	      0.00000000	      0.00000000	      0.00000000	      6.94145780	     -8.75185765	      1.14443270	     -6.71493670
      0.66666667	     -2.13520889	     -0.81159271	      9.79869203	      0.03409550	      0.98250239	      0.26389489	     29.40683310	     -0.81387318	     -9.47991545	    -14.77943234	      6.91630267	    -20.72666051	     -4.13045323	    -18.91976165	     -2.86282458	     16.80674291	    -12.09044137	      0.00000000	      0.00000000	      0.00000000	      0.00000000	      0.00000000	      0.00000000	      6.72260878	     -8.72394711	      1.44321195	     -6.56459228
      0.67083333	     -2.04185549	     -1.01520348	      9.70853855	      0.04072299	      0.98189508	      0.26430889	     29.60251521	     -0.55496452	     -9.39827113	    -15.81442185	      6.51402859	    -20.68670120	     -3.83998323	    -19.04121685	     -3.03161992	     16.59757517	    -12.72148273	      0.00000000	      0.00000000	      0.00000000	      0.00000000	      0.00000000	      0.00000000	      6.47859713	     -8.71236853	      1.74586673	     -6.46189264
